<svg width="57" height="58" viewBox="0 0 57 58" fill="none" xmlns="http://www.w3.org/2000/svg">
<path d="M28.4999 21.6598C24.4142 21.6598 21.0799 24.9941 21.0799 29.0798C21.0799 33.1656 24.4142 36.4998 28.4999 36.4998C32.5856 36.4998 35.9199 33.1656 35.9199 29.0798C35.9199 24.9941 32.5856 21.6598 28.4999 21.6598ZM50.7544 29.0798C50.7544 26.0072 50.7822 22.9623 50.6097 19.8953C50.4371 16.3328 49.6244 13.171 47.0193 10.566C44.4087 7.95532 41.2525 7.14819 37.69 6.97564C34.6174 6.80308 31.5726 6.83091 28.5055 6.83091C25.4328 6.83091 22.388 6.80308 19.3209 6.97564C15.7584 7.14819 12.5967 7.96089 9.9916 10.566C7.38095 13.1766 6.57382 16.3328 6.40126 19.8953C6.22871 22.9679 6.25654 26.0127 6.25654 29.0798C6.25654 32.1469 6.22871 35.1973 6.40126 38.2644C6.57382 41.8269 7.38652 44.9886 9.9916 47.5937C12.6022 50.2043 15.7584 51.0115 19.3209 51.184C22.3936 51.3566 25.4384 51.3287 28.5055 51.3287C31.5781 51.3287 34.6229 51.3566 37.69 51.184C41.2525 51.0115 44.4143 50.1988 47.0193 47.5937C49.63 44.983 50.4371 41.8269 50.6097 38.2644C50.7878 35.1973 50.7544 32.1525 50.7544 29.0798ZM28.4999 40.4965C22.182 40.4965 17.0832 35.3977 17.0832 29.0798C17.0832 22.762 22.182 17.6631 28.4999 17.6631C34.8178 17.6631 39.9166 22.762 39.9166 29.0798C39.9166 35.3977 34.8178 40.4965 28.4999 40.4965ZM40.3842 19.8619C38.9091 19.8619 37.7179 18.6707 37.7179 17.1956C37.7179 15.7205 38.9091 14.5292 40.3842 14.5292C41.8593 14.5292 43.0505 15.7205 43.0505 17.1956C43.0509 17.5458 42.9823 17.8927 42.8484 18.2164C42.7146 18.5401 42.5182 18.8342 42.2705 19.0819C42.0228 19.3296 41.7287 19.526 41.405 19.6598C41.0814 19.7936 40.7344 19.8623 40.3842 19.8619Z" fill="#1a1a1a"/>
</svg>
